<svg width="93" height="18" viewBox="0 0 93 18" fill="none" xmlns="http://www.w3.org/2000/svg">
<path d="M0.341617 17.1367V1.03672H8.20762C10.2316 1.03672 11.7496 1.42005 12.7616 2.18672C13.789 2.95338 14.3026 3.96538 14.3026 5.22272C14.3026 6.06605 14.0956 6.80205 13.6816 7.43072C13.2676 8.04405 12.7003 8.51938 11.9796 8.85672C11.259 9.19405 10.431 9.36272 9.49562 9.36272L9.93262 8.41972C10.9446 8.41972 11.8416 8.58839 12.6236 8.92572C13.4056 9.24772 14.0113 9.73072 14.4406 10.3747C14.8853 11.0187 15.1076 11.8084 15.1076 12.7437C15.1076 14.1237 14.5633 15.2047 13.4746 15.9867C12.386 16.7534 10.7836 17.1367 8.66762 17.1367H0.341617ZM4.04462 14.3307H8.39162C9.35762 14.3307 10.086 14.1774 10.5766 13.8707C11.0826 13.5487 11.3356 13.0427 11.3356 12.3527C11.3356 11.6781 11.0826 11.1797 10.5766 10.8577C10.086 10.5204 9.35762 10.3517 8.39162 10.3517H3.76862V7.63772H7.74762C8.65228 7.63772 9.34228 7.48438 9.81762 7.17772C10.3083 6.85572 10.5536 6.37272 10.5536 5.72872C10.5536 5.10005 10.3083 4.63239 9.81762 4.32572C9.34228 4.00372 8.65228 3.84272 7.74762 3.84272H4.04462V14.3307Z" fill="#0D8DC8"/>
<path d="M24.9895 17.3207C23.9009 17.3207 22.9655 17.0907 22.1835 16.6307C21.4015 16.1707 20.8035 15.4731 20.3895 14.5377C19.9755 13.5871 19.7685 12.3911 19.7685 10.9497C19.7685 9.49305 19.9832 8.29705 20.4125 7.36172C20.8572 6.42638 21.4705 5.72872 22.2525 5.26872C23.0345 4.80872 23.9469 4.57872 24.9895 4.57872C26.1549 4.57872 27.1975 4.83939 28.1175 5.36072C29.0529 5.88205 29.7889 6.61805 30.3255 7.56872C30.8775 8.51939 31.1535 9.64639 31.1535 10.9497C31.1535 12.2377 30.8775 13.3571 30.3255 14.3077C29.7889 15.2584 29.0529 16.0021 28.1175 16.5387C27.1975 17.0601 26.1549 17.3207 24.9895 17.3207ZM17.6755 17.1367V0.0707178H21.2635V7.26972L21.0335 10.9267L21.1025 14.6067V17.1367H17.6755ZM24.3685 14.3767C24.9665 14.3767 25.4955 14.2387 25.9555 13.9627C26.4309 13.6867 26.8065 13.2957 27.0825 12.7897C27.3739 12.2684 27.5195 11.6551 27.5195 10.9497C27.5195 10.2291 27.3739 9.61572 27.0825 9.10972C26.8065 8.60372 26.4309 8.21272 25.9555 7.93672C25.4955 7.66072 24.9665 7.52272 24.3685 7.52272C23.7705 7.52272 23.2339 7.66072 22.7585 7.93672C22.2832 8.21272 21.9075 8.60372 21.6315 9.10972C21.3555 9.61572 21.2175 10.2291 21.2175 10.9497C21.2175 11.6551 21.3555 12.2684 21.6315 12.7897C21.9075 13.2957 22.2832 13.6867 22.7585 13.9627C23.2339 14.2387 23.7705 14.3767 24.3685 14.3767ZM65.3439 17.3207C63.8873 17.3207 62.7526 16.9527 61.9399 16.2167C61.1273 15.4654 60.7209 14.3537 60.7209 12.8817V2.02572H64.3089V12.8357C64.3089 13.3571 64.4469 13.7634 64.7229 14.0547C64.9989 14.3307 65.3746 14.4687 65.8499 14.4687C66.4173 14.4687 66.9003 14.3154 67.2989 14.0087L68.2649 16.5387C67.8969 16.7994 67.4523 16.9987 66.9309 17.1367C66.4249 17.2594 65.8959 17.3207 65.3439 17.3207ZM58.8119 7.79872V5.03872H67.3909V7.79872H58.8119Z" fill="#F2B92A"/>
<path d="M39.6964 17.3207C38.2857 17.3207 37.0437 17.0447 35.9704 16.4927C34.9124 15.9407 34.0921 15.1894 33.5094 14.2387C32.9267 13.2727 32.6354 12.1764 32.6354 10.9497C32.6354 9.70772 32.9191 8.61138 33.4864 7.66072C34.0691 6.69472 34.8587 5.94338 35.8554 5.40672C36.8521 4.85472 37.9791 4.57872 39.2364 4.57872C40.4477 4.57872 41.5364 4.83939 42.5024 5.36072C43.4837 5.86672 44.2581 6.60272 44.8254 7.56872C45.3927 8.51939 45.6764 9.66172 45.6764 10.9957C45.6764 11.1337 45.6687 11.2947 45.6534 11.4787C45.6381 11.6474 45.6227 11.8084 45.6074 11.9617H35.5564V9.86872H43.7214L42.3414 10.4897C42.3414 9.84572 42.2111 9.28605 41.9504 8.81072C41.6897 8.33539 41.3294 7.96739 40.8694 7.70672C40.4094 7.43072 39.8727 7.29272 39.2594 7.29272C38.6461 7.29272 38.1017 7.43072 37.6264 7.70672C37.1664 7.96739 36.8061 8.34305 36.5454 8.83372C36.2847 9.30905 36.1544 9.87639 36.1544 10.5357V11.0877C36.1544 11.7624 36.3001 12.3604 36.5914 12.8817C36.8981 13.3877 37.3197 13.7787 37.8564 14.0547C38.4084 14.3154 39.0524 14.4457 39.7884 14.4457C40.4477 14.4457 41.0227 14.3461 41.5134 14.1467C42.0194 13.9474 42.4794 13.6484 42.8934 13.2497L44.8024 15.3197C44.2351 15.9637 43.5221 16.4621 42.6634 16.8147C41.8047 17.1521 40.8157 17.3207 39.6964 17.3207ZM52.2282 17.3207C51.1702 17.3207 50.1505 17.1981 49.1692 16.9527C48.2032 16.6921 47.4365 16.3701 46.8692 15.9867L48.0652 13.4107C48.6325 13.7634 49.2995 14.0547 50.0662 14.2847C50.8482 14.4994 51.6148 14.6067 52.3662 14.6067C53.1942 14.6067 53.7768 14.5071 54.1142 14.3077C54.4668 14.1084 54.6432 13.8324 54.6432 13.4797C54.6432 13.1884 54.5052 12.9737 54.2292 12.8357C53.9685 12.6824 53.6158 12.5674 53.1712 12.4907C52.7265 12.4141 52.2358 12.3374 51.6992 12.2607C51.1778 12.1841 50.6488 12.0844 50.1122 11.9617C49.5755 11.8237 49.0848 11.6244 48.6402 11.3637C48.1955 11.1031 47.8352 10.7504 47.5592 10.3057C47.2985 9.86105 47.1682 9.28605 47.1682 8.58072C47.1682 7.79872 47.3905 7.10872 47.8352 6.51072C48.2952 5.91272 48.9545 5.44505 49.8132 5.10772C50.6718 4.75505 51.6992 4.57872 52.8952 4.57872C53.7385 4.57872 54.5972 4.67072 55.4712 4.85472C56.3452 5.03872 57.0735 5.30705 57.6562 5.65972L56.4602 8.21272C55.8622 7.86005 55.2565 7.62238 54.6432 7.49972C54.0452 7.36172 53.4625 7.29272 52.8952 7.29272C52.0978 7.29272 51.5152 7.40005 51.1472 7.61472C50.7792 7.82939 50.5952 8.10539 50.5952 8.44272C50.5952 8.74939 50.7255 8.97939 50.9862 9.13272C51.2622 9.28605 51.6225 9.40872 52.0672 9.50072C52.5118 9.59272 52.9948 9.67705 53.5162 9.75372C54.0528 9.81505 54.5895 9.91472 55.1262 10.0527C55.6628 10.1907 56.1458 10.3901 56.5752 10.6507C57.0198 10.8961 57.3802 11.2411 57.6562 11.6857C57.9322 12.1151 58.0702 12.6824 58.0702 13.3877C58.0702 14.1544 57.8402 14.8367 57.3802 15.4347C56.9202 16.0174 56.2532 16.4774 55.3792 16.8147C54.5205 17.1521 53.4702 17.3207 52.2282 17.3207ZM76.0382 17.3207C74.6275 17.3207 73.3855 17.0447 72.3122 16.4927C71.2542 15.9407 70.4339 15.1894 69.8512 14.2387C69.2685 13.2727 68.9772 12.1764 68.9772 10.9497C68.9772 9.70772 69.2609 8.61138 69.8282 7.66072C70.4109 6.69472 71.2005 5.94338 72.1972 5.40672C73.1939 4.85472 74.3209 4.57872 75.5782 4.57872C76.7895 4.57872 77.8782 4.83939 78.8442 5.36072C79.8255 5.86672 80.5999 6.60272 81.1672 7.56872C81.7345 8.51939 82.0182 9.66172 82.0182 10.9957C82.0182 11.1337 82.0105 11.2947 81.9952 11.4787C81.9799 11.6474 81.9645 11.8084 81.9492 11.9617H71.8982V9.86872H80.0632L78.6832 10.4897C78.6832 9.84572 78.5529 9.28605 78.2922 8.81072C78.0315 8.33539 77.6712 7.96739 77.2112 7.70672C76.7512 7.43072 76.2145 7.29272 75.6012 7.29272C74.9879 7.29272 74.4435 7.43072 73.9682 7.70672C73.5082 7.96739 73.1479 8.34305 72.8872 8.83372C72.6265 9.30905 72.4962 9.87639 72.4962 10.5357V11.0877C72.4962 11.7624 72.6419 12.3604 72.9332 12.8817C73.2399 13.3877 73.6615 13.7787 74.1982 14.0547C74.7502 14.3154 75.3942 14.4457 76.1302 14.4457C76.7895 14.4457 77.3645 14.3461 77.8552 14.1467C78.3612 13.9474 78.8212 13.6484 79.2352 13.2497L81.1442 15.3197C80.5769 15.9637 79.8639 16.4621 79.0052 16.8147C78.1465 17.1521 77.1575 17.3207 76.0382 17.3207Z" fill="#19A6DF"/>
<path d="M84.407 17.1367V4.76272H87.834V8.25872L87.351 7.24672C87.719 6.37272 88.3093 5.71338 89.122 5.26872C89.9346 4.80872 90.9236 4.57872 92.089 4.57872V7.89072C91.9356 7.87538 91.7976 7.86772 91.675 7.86772C91.5523 7.85238 91.422 7.84472 91.284 7.84472C90.3026 7.84472 89.5053 8.12839 88.892 8.69572C88.294 9.24772 87.995 10.1141 87.995 11.2947V17.1367H84.407Z" fill="#AFC536"/>
</svg>
