<svg width="21" height="21" viewBox="0 0 21 21" fill="none" xmlns="http://www.w3.org/2000/svg">
<rect x="0.503906" y="0.820312" width="19.3353" height="18.7397" rx="9.36987" fill="white"/>
<path d="M10.1482 0.43802C4.62573 0.43802 0.148438 4.77688 0.148438 10.1297C0.148438 12.8856 1.33553 15.373 3.24098 17.1377C3.40383 17.2888 3.49704 17.497 3.49758 17.7156L3.50186 19.8681C3.50293 20.283 3.94648 20.5581 4.33539 20.3847L6.53118 19.4061C6.71814 19.323 6.93028 19.3105 7.12634 19.3708C8.07987 19.6631 9.095 19.8209 10.1487 19.8209C15.6717 19.8209 20.1484 15.482 20.1484 10.1292C20.1484 4.77636 15.6711 0.4375 10.1487 0.4375L10.1482 0.43802ZM16.21 7.95951L13.275 12.4863C12.742 13.3087 11.5865 13.4946 10.8081 12.883L8.81483 11.3171C8.50199 11.0715 8.05309 11.0726 7.74185 11.3202L4.8668 13.6083C4.36968 14.0039 3.68774 13.4131 4.03755 12.8897L7.15259 8.23364C7.549 7.64125 8.37557 7.49068 8.96644 7.90344L11.5281 9.69153C11.7927 9.87584 12.1511 9.86856 12.4066 9.67335L15.4799 7.32506C15.9186 6.99018 16.5057 7.50158 16.209 7.96003L16.21 7.95951Z" fill="url(#paint0_linear_3980_510218)"/>
<defs>
<linearGradient id="paint0_linear_3980_510218" x1="14.68" y1="1.57719" x2="4.34555" y2="20.6034" gradientUnits="userSpaceOnUse">
<stop stop-color="#FF6A67"/>
<stop offset="0.275" stop-color="#D852A8"/>
<stop offset="0.425" stop-color="#9959D3"/>
<stop offset="0.65" stop-color="#8246FF"/>
<stop offset="0.905" stop-color="#108FFF"/>
</linearGradient>
</defs>
</svg>
