<svg width="36" height="36" viewBox="0 0 36 36" fill="none" xmlns="http://www.w3.org/2000/svg">
<g clip-path="url(#clip0_4199_86827)">
<path d="M7.00008 0.847506C8.20057 0.658519 9.42146 0.657387 10.6344 0.684547L10.5301 0.780738C8.94308 1.81847 7.62696 3.24323 6.67587 4.87848C4.76915 8.15238 4.07425 12.0238 4.23182 15.7764C4.38826 18.8319 5.12283 21.9043 6.6804 24.5603C6.94113 25.0356 7.3753 25.4555 7.38211 26.0326C7.43085 27.2707 6.81757 28.4374 5.98777 29.3224C6.04219 29.3789 6.09547 29.4355 6.14988 29.4921C6.9264 30.3386 7.75506 31.1341 8.54405 31.9693C9.66518 33.2345 10.9428 34.3548 12.0412 35.6427C10.2138 35.6698 8.36494 35.7547 6.55911 35.4141C4.28623 34.9739 2.26842 33.4009 1.30486 31.2982C0.721053 30.0828 0.546478 28.7237 0.5 27.3917C0.5 21.2423 0.5 15.094 0.5 8.94567C0.526073 6.89057 1.07134 4.74042 2.52008 3.21607C3.66729 1.92485 5.29174 1.08515 7.00008 0.847506Z" fill="#0068FF"/>
<path d="M23.6424 12.1406H25.1024C25.0945 14.9845 25.0945 17.8295 25.1024 20.6733C24.6263 20.6066 23.8339 20.911 23.6548 20.2784C23.6254 17.5669 23.6526 14.8532 23.6424 12.1406Z" fill="#0068FF"/>
<path d="M8.76503 12.2428C11.0277 12.2405 13.2881 12.2258 15.5496 12.2416C15.5338 12.6841 15.5088 13.1662 15.2118 13.5238C13.6656 15.4454 12.1522 17.3918 10.6071 19.3134C12.2497 19.3236 13.8923 19.3168 15.5349 19.3168C15.5043 19.7004 15.6392 20.1474 15.3898 20.4801C15.2334 20.6951 14.95 20.6759 14.7153 20.6782C12.6601 20.6668 10.6049 20.6883 8.55078 20.6668C8.55645 20.2334 8.56098 19.7536 8.86479 19.4084C10.3929 17.4948 11.9391 15.5947 13.4604 13.6766C11.8972 13.6788 10.3328 13.6664 8.76957 13.6834C8.75936 13.2035 8.76276 12.7226 8.76503 12.2428Z" fill="#0068FF"/>
<path d="M28.7247 14.1258C30.3526 13.7626 32.1187 14.8297 32.5642 16.4299C33.1231 18.0946 32.1029 20.0738 30.4172 20.5808C28.9854 21.0844 27.2714 20.4269 26.5289 19.1097C25.9463 18.1364 25.9111 16.8622 26.4405 15.8607C26.8894 14.9768 27.7566 14.3307 28.7247 14.1258ZM28.6975 15.5676C27.7045 15.9173 27.1694 17.1236 27.5571 18.098C27.8779 19.0191 28.9582 19.5827 29.8969 19.2998C30.9681 19.044 31.6154 17.7913 31.2356 16.7649C30.9182 15.7486 29.6883 15.1624 28.6975 15.5676Z" fill="#0068FF"/>
<path d="M16.6646 15.3067C17.4479 14.338 18.8196 13.8605 20.028 14.2056C20.427 14.3063 20.7887 14.5055 21.1378 14.7171C21.1344 14.6108 21.1265 14.3991 21.1231 14.2928C21.5799 14.2905 22.0356 14.2916 22.4925 14.2894C22.4902 16.4169 22.4879 18.5444 22.4936 20.6731C22.158 20.664 21.8168 20.7036 21.4869 20.6357C21.2557 20.5418 21.1843 20.2894 21.0925 20.0835C19.8319 21.0612 17.8515 20.8394 16.804 19.6489C15.6874 18.4958 15.6296 16.5312 16.6646 15.3067ZM18.5101 15.5919C17.4604 15.9608 16.9514 17.3109 17.4831 18.2841C17.9365 19.2325 19.2129 19.6308 20.1255 19.108C20.9723 18.6644 21.3634 17.5633 20.9995 16.6828C20.6469 15.7254 19.4578 15.189 18.5101 15.5919Z" fill="#0068FF"/>
<path d="M10.5308 0.782669C10.7847 0.710242 11.05 0.687609 11.313 0.679688C15.8463 0.696662 20.3796 0.677424 24.9128 0.685346C26.1247 0.700057 27.3433 0.618578 28.546 0.803039C30.2113 0.929785 31.8142 1.63368 33.0532 2.7461C34.6085 4.22971 35.4383 6.36628 35.4644 8.4972C35.4655 14.4961 35.4621 20.4996 35.4678 26.4963C35.4519 26.5313 35.4213 26.6038 35.4055 26.64C33.7901 28.4438 31.6181 29.6649 29.3475 30.4548C26.2879 31.4959 23.0106 31.8309 19.7946 31.5865C16.5786 31.3103 13.3376 30.4718 10.6102 28.6973C9.21583 29.3164 7.67753 29.6196 6.15056 29.494C6.09615 29.4374 6.04287 29.3809 5.98846 29.3243C6.81826 28.4393 7.43153 27.2726 7.38279 26.0345C7.37599 25.4574 6.94182 25.0376 6.68109 24.5623C5.12352 21.9062 4.38894 18.8338 4.23251 15.7783C4.07494 12.0257 4.76983 8.15431 6.67655 4.88041C7.62765 3.24516 8.94376 1.8204 10.5308 0.782669ZM23.6443 12.1411C23.6545 14.8537 23.6273 17.5675 23.6568 20.2789C23.8359 20.9115 24.6283 20.6071 25.1044 20.6739C25.0965 17.83 25.0965 14.985 25.1044 12.1411H23.6443ZM8.76692 12.2419C8.76465 12.7217 8.76125 13.2026 8.77145 13.6825C10.3347 13.6655 11.8991 13.6779 13.4623 13.6757C11.941 15.5938 10.3948 17.4939 8.86668 19.4075C8.56287 19.7527 8.55834 20.2325 8.55267 20.6659C10.6068 20.6874 12.662 20.6659 14.7172 20.6773C14.9519 20.675 15.2353 20.6942 15.3917 20.4792C15.6411 20.1465 15.5062 19.6995 15.5368 19.3159C13.8942 19.3159 12.2516 19.3227 10.609 19.3125C12.1541 17.3909 13.6675 15.4445 15.2137 13.5229C15.5107 13.1653 15.5357 12.6832 15.5515 12.2407C13.29 12.2249 11.0296 12.2396 8.76692 12.2419ZM28.724 14.1249C27.7559 14.3298 26.8887 14.976 26.4398 15.8598C25.9104 16.8613 25.9455 18.1356 26.5282 19.1088C27.2707 20.426 28.9847 21.0835 30.4165 20.5799C32.1021 20.073 33.1224 18.0937 32.5635 16.429C32.118 14.8288 30.3519 13.7617 28.724 14.1249ZM16.6647 15.3098C15.6298 16.5343 15.6876 18.4988 16.8042 19.652C17.8516 20.8425 19.832 21.0643 21.0926 20.0865C21.1844 20.2925 21.2558 20.5449 21.4871 20.6388C21.817 20.7067 22.1582 20.6671 22.4937 20.6761C22.4881 18.5475 22.4903 16.42 22.4926 14.2924C22.0357 14.2947 21.58 14.2924 21.1232 14.2958C21.1266 14.4022 21.1345 14.6138 21.1379 14.7202C20.7888 14.5086 20.4272 14.3094 20.0281 14.2087C18.8197 13.8635 17.4481 14.3411 16.6647 15.3098Z" fill="white"/>
<path d="M18.5095 15.5962C19.4572 15.1933 20.6463 15.7297 20.9989 16.6871C21.3628 17.5675 20.9717 18.6686 20.1249 19.1122C19.2123 19.6351 17.9359 19.2367 17.4825 18.2884C16.9508 17.3152 17.4598 15.9651 18.5095 15.5962Z" fill="white"/>
<path d="M28.697 15.5669C29.6877 15.1618 30.9177 15.748 31.2351 16.7642C31.6148 17.7906 30.9676 19.0434 29.8963 19.2992C28.9577 19.5821 27.8774 19.0185 27.5565 18.0973C27.1689 17.123 27.7039 15.9166 28.697 15.5669Z" fill="white"/>
<path d="M35.4033 26.6364L35.4929 26.5391C35.5394 28.3078 35.3478 30.1536 34.4783 31.7277C33.4671 33.5746 31.633 34.9462 29.5698 35.3853C28.4124 35.624 27.2255 35.6772 26.0466 35.6625C22.4202 35.6636 18.7938 35.6625 15.1674 35.6636C14.1245 35.6467 13.0793 35.6953 12.0398 35.641C10.9413 34.3532 9.66374 33.2328 8.54261 31.9676C7.75362 31.1325 6.92496 30.3369 6.14844 29.4904C7.6754 29.616 9.2137 29.3128 10.608 28.6937C13.3355 30.4682 16.5765 31.3067 19.7925 31.5829C23.0085 31.8273 26.2858 31.4923 29.3454 30.4512C31.616 29.6613 33.788 28.4403 35.4033 26.6364Z" fill="#005BE0"/>
</g>
<defs>
<clipPath id="clip0_4199_86827">
<rect x="0.5" y="0.671875" width="35" height="35" rx="4.5" fill="white"/>
</clipPath>
</defs>
</svg>
